# AST/ASF file generated using VICON BodyLanguage
# -----------------------------------------------
:version 1.10
:name VICON
:units
  mass 1.0
  length 0.45
  angle deg
:documentation
   .ast/.asf automatically generated from VICON data using
   VICON BodyBuilder and BodyLanguage model FoxedUp or BRILLIANT.MOD
:root
   order TX TY TZ RX RY RZ
   axis XYZ
   position 0 0 0  
   orientation 0 0 0 
:bonedata
  begin
     id 1 
     name lhipjoint
     direction 0.567149 -0.783011 0.255413 
     length 2.28399 
     axis 0 0 0  XYZ
  end
  begin
     id 2 
     name lfemur
     direction 0.34202 -0.939693 0  
     length 7.34031  
     axis 0 0 20  XYZ
    dof rx ry rz
    limits (-160.0 20.0)
           (-70.0 70.0)
           (-60.0 70.0)
  end
  begin
     id 3 
     name ltibia
     direction 0.34202 -0.939693 0   
     length 6.9833   
     axis 0 0 20   XYZ
    dof rx
    limits (-10.0 170.0)
  end
  begin
     id 4 
     name lfoot
     direction 0.136498 -0.375025 0.91691   
     length 2.33665   
     axis -90 7.62852e-016 20   XYZ
    dof rx rz
    limits (-45.0 90.0)
           (-70.0 20.0)
  end
  begin
     id 5 
     name ltoes
     direction 1.5367e-011 -4.21617e-011 1   
     length 1.15039   
     axis -90 7.62852e-016 20   XYZ
    dof rx
    limits (-90.0 20.0)
  end
  begin
     id 6 
     name rhipjoint
     direction -0.602854 -0.758518 0.247423   
     length 2.35775  
     axis 0 0 0  XYZ 
  end
  begin
     id 7 
     name rfemur
     direction -0.34202 -0.939693 0   
     length 7.43932   
     axis 0 0 -20   XYZ
    dof rx ry rz
    limits (-160.0 20.0)
           (-70.0 70.0)
           (-70.0 60.0)
  end
  begin
     id 8 
     name rtibia
     direction -0.34202 -0.939693 0   
     length 7.11893   
     axis 0 0 -20   XYZ
    dof rx
    limits (-10.0 170.0)
 end
 begin
     id 9 
     name rfoot
     direction -0.131771 -0.362037 0.922803   
     length 2.53019  
     axis -90 -7.62852e-016 -20   XYZ
    dof rx rz
    limits (-45.0 90.0)
           (-20.0 70.0)
  end
  begin
     id 10 
     name rtoes
     direction -1.53733e-011 -4.21932e-011 1   
     length 1.24596   
     axis -90 -7.62852e-016 -20   XYZ
    dof rx
    limits (-90.0 20.0)
  end
  begin
     id 11 
     name lowerback
     direction 0.0235427 0.999023 -0.0374125   
     length 2.21768   
     axis 0 0 0   XYZ
    dof rx ry rz
    limits (-20.0 45.0)
           (-30.0 30.0)
           (-30.0 30.0)
  end
  begin
     id 12 
     name upperback
     direction 0.0302156 0.996818 -0.073759   
     length 2.20352   
     axis 0 0 0   XYZ
    dof rx ry rz
    limits (-20.0 45.0)
           (-30.0 30.0)
           (-30.0 30.0)
  end
  begin
     id 13 
     name thorax
     direction 0.0187169 0.998235 -0.0563532   
     length 2.22103   
     axis 0 0 0   XYZ
    dof rx ry rz
    limits (-20.0 45.0)
           (-30.0 30.0)
           (-30.0 30.0)
  end
  begin
     id 14 
     name lowerneck
     direction -0.119528 0.987423 0.103481   
     length 1.72948   
     axis 0 0 0   XYZ
    dof rx ry rz
    limits (-20.0 45.0)
           (-30.0 30.0)
           (-30.0 30.0)
  end
  begin
     id 15 
     name upperneck
     direction 0.248049 0.963095 -0.104496   
     length 1.74979   
     axis 0 0 0   XYZ
    dof rx ry rz
    limits (-20.0 45.0)
           (-30.0 30.0)
           (-30.0 30.0)
  end
  begin
     id 16
     name head
     direction 0.0903589 0.994284 -0.056876  
     length 1.78268  
     axis 0 0 0   XYZ
    dof rx ry rz
    limits (-20.0 45.0)
           (-30.0 30.0)
           (-30.0 30.0)
  end
  begin
     id 17 
     name lclavicle
     direction 0.946008 0.242039 -0.215608  
     length 3.80783  
     axis 0 0 0   XYZ
    dof ry rz
    limits (-20.0 10.0)
           (0.0 20.0)
  end
  begin
     id 18 
     name lhumerus
     direction 1 -4.48991e-011 -2.25695e-027   
     length 4.83125   
     axis 180 -30 -90   XYZ
    dof rx ry rz
    limits (-60.0 90.0)
           (-90.0 90.0)
           (-90.0 90.0)
  end
  begin
     id 19
     name lradius
     direction 0.999991 0.00366712 -0.00211721   
     length 3.00391   
     axis 180 -30 -90   XYZ
    dof rx
    limits (-10.0 170.0)
  end
  begin
     id 20
     name lwrist
     direction 0.999991 0.00393016 -0.00141978   
     length 1.50195   
     axis -1.00488e-014 90 90   XYZ
    dof ry
    limits (-180.0 0.0)
 end
  begin
     id 21 
     name lhand
     direction 1 -4.49123e-011 2.72098e-026   
     length 1.2717   
     axis -1.73687e-014 90 90   XYZ
    dof rx rz
    limits (-90.0 90.0)
           (-45.0 45.0)
  end
  begin
     id 22 
     name lfingers
     direction 1 -4.48678e-011 5.4479e-026   
     length 1.02528   
     axis -3.47372e-014 90 90   XYZ
    dof rx
    limits (0.0 90.0)
  end
  begin
     id 23
     name lthumb
     direction 0.707107 -6.34851e-011 0.707107   
     length 1.4721   
     axis -90 45 -1.62303e-014   XYZ
    dof rx rz
    limits (-45.0 45.0)
           (-45.0 45.0)
  end
  begin
     id 24 
     name rclavicle
     direction -0.981723 0.189447 -0.0181673   
     length 3.74989  
     axis 0 0 0   XYZ 
    dof ry rz
    limits (-10.0 20.0)
           (-20.0 0.0)
  end
  begin
     id 25 
     name rhumerus
     direction -1 -4.48985e-011 2.38206e-027  
     length 4.61118   
     axis 180 30 90   XYZ
    dof rx ry rz
    limits (-90.0 60.0)
           (-90.0 90.0)
           (-90.0 90.0)
  end
  begin
     id 26 
     name rradius
     direction -1 -4.48977e-011 7.41019e-027   
     length 2.91491   
     axis 180 30 90   XYZ
    dof rx
    limits (-10.0 170.0)
  end
  begin
     id 27 
     name rwrist
     direction -1 -4.48549e-011 1.3624e-026   
     length 1.45745   
     axis -1.00488e-014 -90 -90   XYZ
    dof ry
    limits (-180.0 0.0)
  end
  begin
     id 28
     name rhand
     direction -1 -4.49107e-011 2.72109e-026   
     length 1.30769   
     axis -1.73687e-014 -90 -90   XYZ
    dof rx rz
    limits (-90.0 90.0)
           (-45.0 45.0)
  end
  begin
     id 29
     name rfingers
     direction -1 -4.48919e-011 5.44468e-026   
     length 1.05429   
     axis -3.47372e-014 -90 -90   XYZ
    dof rx
    limits (0.0 90.0)
  end
  begin
     id 30
     name rthumb
     direction -0.707107 -6.35315e-011 0.707107   
     length 1.51376   
     axis -90 -45 1.62303e-014   XYZ
    dof rx rz
    limits (-45.0 45.0)
           (-45.0 45.0)
  end
:hierarchy
  begin
    root lhipjoint rhipjoint lowerback
    lhipjoint lfemur
    lfemur ltibia
    ltibia lfoot
    lfoot ltoes
    rhipjoint rfemur
    rfemur rtibia
    rtibia rfoot
    rfoot rtoes
    lowerback upperback
    upperback thorax
    thorax lowerneck lclavicle rclavicle
    lowerneck upperneck
    upperneck head
    lclavicle lhumerus
    lhumerus lradius
    lradius lwrist
    lwrist lhand lthumb
    lhand lfingers
    rclavicle rhumerus
    rhumerus rradius
    rradius rwrist
    rwrist rhand rthumb
    rhand rfingers
  end

#!OML:ASF X:\für Bonn\!DataBase\2005_08_11_Bastian_Final\c3d\Bastian.ASF
:FULLY-SPECIFIED
:DEGREES
17
root 1.37262 17.0571 -0.0979751 160.178 -24.1847 -174.046
lowerback 5.85458 -3.10533 6.61014
upperback 8.28213 -5.02201 2.67461
thorax 5.12022 -2.61489 -0.848684
lowerneck -0.731127 -11.755 -7.45936
upperneck -1.0953 -15.7245 8.424
head 1.14258 -7.86464 3.63843
rclavicle 1.41883e-014 -3.81667e-014
rhumerus -46.2496 36.6441 -103.274
rradius 29.6407
rwrist -40.6154
rhand -43.3549 -4.01877
rfingers 7.12502
rthumb -16.2001 -33.3619
lclavicle 1.41883e-014 -3.81667e-014
lhumerus 4.82878 -36.7095 92.7529
lradius 72.8691
lwrist -6.06537
lhand -46.7369 -17.7429
lfingers 7.12502
lthumb -19.4543 11.3038
rfemur -1.01775 -14.7043 19.8754
rtibia 57.9173
rfoot -12.1709 -12.3754
rtoes -13.9359
lfemur 4.63214 -6.22038 -15.3364
ltibia 36.0944
lfoot -15.9378 -9.38067
ltoes -7.46256
18
root 1.33633 17.0575 -0.0588704 159.783 -24.2714 -174.105
lowerback 6.76279 -3.25268 6.50683
upperback 8.66442 -5.25683 2.68693
thorax 5.02463 -2.77814 -0.724527
lowerneck -0.693891 -11.7322 -7.5814
upperneck -1.465 -15.6871 8.77231
head 1.05684 -7.85151 3.79135
rclavicle 4.87022e-014 -2.22639e-014
rhumerus -46.7368 36.3249 -103.701
rradius 29.4482
rwrist -42.6113
rhand -43.5426 -4.51521
rfingers 7.12502
rthumb -16.3809 -33.8435
lclavicle 4.87022e-014 -2.22639e-014
lhumerus 7.09867 -36.4441 92.2764
lradius 74.8267
lwrist -7.15253
lhand -47.2456 -17.6292
lfingers 7.12502
lthumb -19.9434 11.3674
rfemur -2.79926 -14.2502 19.3411
rtibia 60.8839
rfoot -8.38422 -11.7472
rtoes -15.4995
lfemur 5.14198 -6.09037 -15.592
ltibia 35.7393
lfoot -15.5774 -9.48097
ltoes -6.67528
19
root 1.30176 17.0598 -0.020276 159.379 -24.3023 -174.191
lowerback 7.67969 -3.38453 6.35519
upperback 9.08557 -5.48944 2.69989
thorax 4.9753 -2.94741 -0.570508
lowerneck -0.710741 -11.6989 -7.6761
upperneck -1.84042 -15.6313 9.10091
head 0.972392 -7.82925 3.93154
rclavicle -1.23246e-014 6.12257e-014
rhumerus -46.8115 35.5188 -103.619
rradius 29.1803
rwrist -43.4158
rhand -43.3277 -4.80012
rfingers 7.12502
rthumb -16.174 -34.1453
lclavicle -1.23246e-014 6.12257e-014
lhumerus 9.52637 -36.2155 91.6153
lradius 76.6647
lwrist -8.28241
lhand -47.7406 -17.3365
lfingers 7.12502
lthumb -20.4191 11.6099
rfemur -4.73919 -13.6113 18.8274
rtibia 63.8709
rfoot -4.39963 -11.1118
rtoes -17.2182
lfemur 5.70806 -5.95922 -15.8633
ltibia 35.3449
lfoot -15.2292 -9.54911
ltoes -6.05892
20
root 1.26745 17.0749 0.0174991 158.954 -24.2875 -174.251
lowerback 8.62418 -3.51367 6.23745
upperback 9.50321 -5.72364 2.70364
thorax 4.90953 -3.11966 -0.437934
lowerneck -0.743008 -11.6587 -7.76645
upperneck -2.17385 -15.5671 9.41426
head 0.901418 -7.80286 4.0647
rclavicle -1.05654e-013 8.66701e-014
rhumerus -46.6509 34.3188 -103.229
rradius 28.8463
rwrist -43.2477
rhand -42.8575 -4.8184
rfingers 7.12502
rthumb -15.7211 -34.1998
lclavicle -1.05654e-013 8.66701e-014
lhumerus 11.9351 -35.9894 90.872
lradius 78.4361
lwrist -9.37199
lhand -48.2113 -17.1082
lfingers 7.12502
lthumb -20.8714 11.7891
rfemur -6.73987 -12.8285 18.3956
rtibia 66.7731
rfoot -0.300416 -10.5235
rtoes -18.6236
lfemur 6.3516 -5.76765 -16.0819
ltibia 34.8353
lfoot -14.8508 -9.6114
ltoes -5.82344
21
root 1.23476 17.083 0.0559389 158.493 -24.2496 -174.314
lowerback 9.61566 -3.65383 6.08655
upperback 9.95124 -5.98969 2.70362
thorax 4.85859 -3.31643 -0.282781
lowerneck -0.859472 -11.6033 -7.83144
upperneck -2.47751 -15.478 9.68973
head 0.846386 -7.76278 4.17595
rclavicle 6.40087e-014 5.56597e-015
rhumerus -46.6479 33.3754 -102.984
rradius 28.7834
rwrist -42.8534
rhand -42.3892 -4.7018
rfingers 7.12502
rthumb -15.2701 -34.1182
lclavicle 6.40087e-014 5.56597e-015
lhumerus 14.386 -35.6968 90.0253
lradius 80.2212
lwrist -10.2793
lhand -48.6104 -16.9483
lfingers 7.12502
lthumb -21.2548 11.9063
rfemur -8.75907 -11.9863 18.007
rtibia 69.628
rfoot 3.88746 -9.80574
rtoes -19.933
lfemur 7.08066 -5.61828 -16.3107
ltibia 34.2239
lfoot -14.3715 -9.63419
ltoes -5.15811
22
root 1.20364 17.0968 0.0940819 157.985 -24.1621 -174.305
lowerback 10.6801 -3.79329 6.01258
upperback 10.3807 -6.25373 2.70599
thorax 4.74987 -3.51414 -0.154464
lowerneck -1.03275 -11.549 -7.91306
upperneck -2.69941 -15.3917 9.97183
head 0.830136 -7.72261 4.28579
rclavicle -3.13086e-014 1.19271e-014
rhumerus -46.9365 32.7617 -103.016
rradius 29.0451
rwrist -42.4682
rhand -41.9846 -4.4876
rfingers 7.12502
rthumb -14.8804 -33.9332
lclavicle -3.13086e-014 1.19271e-014
lhumerus 16.8861 -35.4512 89.0428
lradius 81.9306
lwrist -10.8912
lhand -48.9717 -17.0641
lfingers 7.12502
lthumb -21.6019 11.751
rfemur -10.803 -11.0187 17.8057
rtibia 72.3539
rfoot 7.99882 -8.95004
rtoes -21.1269
lfemur 7.89983 -5.51274 -16.4689
ltibia 33.4885
lfoot -13.8736 -9.58382
ltoes -4.6432
23
root 1.17441 17.1171 0.132275 157.485 -24.0502 -174.317
lowerback 11.798 -3.93929 5.90733
upperback 10.7904 -6.52891 2.68959
thorax 4.59835 -3.72295 -0.015608
lowerneck -1.23605 -11.4735 -7.98324
upperneck -2.86422 -15.2783 10.2421
head 0.832896 -7.66808 4.38786
rclavicle -2.13694e-014 -1.98785e-014
rhumerus -47.4407 32.4717 -103.328
rradius 29.4937
rwrist -42.1297
rhand -41.7191 -4.15841
rfingers 7.12502
rthumb -14.6245 -33.6227
lclavicle -2.13694e-014 -1.98785e-014
lhumerus 19.3669 -35.1527 87.9806
lradius 83.5818
lwrist -11.2282
lhand -49.271 -17.4892
lfingers 7.12502
lthumb -21.8892 11.2926
rfemur -12.9291 -9.90248 17.6738
rtibia 74.9787
rfoot 11.7577 -7.90689
rtoes -22.1741
lfemur 8.74972 -5.4419 -16.6628
ltibia 32.7071
lfoot -13.3548 -9.42471
ltoes -4.31268
24
root 1.14739 17.1369 0.171131 156.929 -23.916 -174.288
lowerback 12.9726 -4.08527 5.81271
upperback 11.2163 -6.81895 2.68581
thorax 4.44442 -3.94697 0.142681
lowerneck -1.46972 -11.3943 -8.09558
upperneck -3.02885 -15.1589 10.5369
head 0.846128 -7.6102 4.5047
rclavicle 1.43125e-014 2.14687e-014
rhumerus -47.9413 32.3667 -103.723
rradius 29.9248
rwrist -41.7996
rhand -41.5107 -3.60888
rfingers 7.12502
rthumb -14.4238 -33.0877
lclavicle 1.43125e-014 2.14687e-014
lhumerus 21.8657 -34.7985 86.8815
lradius 85.1508
lwrist -11.3769
lhand -49.5562 -18.2034
lfingers 7.12502
lthumb -22.1631 10.5461
rfemur -15.053 -8.67481 17.646
rtibia 77.5171
rfoot 14.9247 -6.77893
rtoes -22.7427
lfemur 9.66246 -5.45068 -16.8355
ltibia 31.8902
lfoot -12.8305 -9.2258
ltoes -3.84661
25
root 1.12357 17.1542 0.211102 156.366 -23.7864 -174.264
lowerback 14.1948 -4.23114 5.68371
upperback 11.622 -7.1153 2.67914
thorax 4.25583 -4.18076 0.330715
lowerneck -1.74288 -11.3035 -8.18501
upperneck -3.1818 -15.0087 11.1651
head 0.812344 -7.53296 4.25037
rclavicle 2.90226e-014 -6.36111e-015
rhumerus -48.2801 31.9925 -103.907
rradius 30.2779
rwrist -40.9707
rhand -41.2432 -2.92513
rfingers 7.12502
rthumb -14.166 -32.4221
lclavicle 2.90226e-014 -6.36111e-015
lhumerus 24.2679 -34.4327 85.7803
lradius 86.6663
lwrist -11.455
lhand -49.8749 -19.044
lfingers 7.12502
lthumb -22.469 9.66891
rfemur -17.2151 -7.35367 17.6855
rtibia 80.0362
rfoot 17.4162 -5.63051
rtoes -23.1154
lfemur 10.5426 -5.4567 -17.0018
ltibia 31.1404
lfoot -12.3256 -9.01338
ltoes -3.29773
26
root 1.1042 17.1631 0.253058 155.76 -23.6198 -174.207
lowerback 15.4933 -4.36631 5.54747
upperback 12.009 -7.40426 2.68593
thorax 4.02156 -4.41825 0.552924
lowerneck -1.83675 -11.1804 -8.37929
upperneck -3.41331 -14.8344 11.5654
head 0.790461 -7.453 4.40465
rclavicle -1.94809e-014 -6.36111e-014
rhumerus -48.7416 31.8198 -104.241
rradius 30.7076
rwrist -40.3023
rhand -41.01 -2.19133
rfingers 7.12502
rthumb -13.9413 -31.7039
lclavicle -1.94809e-014 -6.36111e-014
lhumerus 26.5726 -34.0019 84.7215
lradius 88.0963
lwrist -11.6241
lhand -50.2185 -19.8756
lfingers 7.12502
lthumb -22.7988 8.79709
rfemur -19.3848 -5.98005 17.8475
rtibia 82.5926
rfoot 18.8437 -4.68221
rtoes -22.6624
lfemur 11.3688 -5.49304 -17.1327
ltibia 30.572
lfoot -11.9503 -8.76129
ltoes -3.10668
27
root 1.08735 17.1616 0.297626 155.166 -23.3744 -174.171
lowerback 16.8248 -4.47591 5.39585
upperback 12.3994 -7.67469 2.68217
thorax 3.78763 -4.65275 0.781134
lowerneck -1.98891 -11.0519 -8.56249
upperneck -3.59227 -14.6521 11.9418
head 0.789118 -7.36706 4.54629
rclavicle 4.41302e-014 -8.5875e-014
rhumerus -49.426 32.2021 -104.956
rradius 31.2729
rwrist -40.1862
rhand -40.828 -1.43939
rfingers 7.12502
rthumb -13.7659 -30.964
lclavicle 4.41302e-014 -8.5875e-014
lhumerus 28.8492 -33.5042 83.6375
lradius 89.4634
lwrist -11.8789
lhand -50.5649 -20.5794
lfingers 7.12502
lthumb -23.1312 8.05194
rfemur -21.6118 -4.61565 18.0861
rtibia 85.2348
rfoot 19.4287 -3.79885
rtoes -21.3308
lfemur 12.0604 -5.49733 -17.2589
ltibia 30.2661
lfoot -11.6941 -8.51018
ltoes -2.71013
28
root 1.07435 17.1473 0.344345 154.556 -23.0996 -174.134
lowerback 18.2231 -4.58166 5.26078
upperback 12.7728 -7.94263 2.65302
thorax 3.50925 -4.88855 0.990428
lowerneck -1.9885 -10.8951 -8.7749
upperneck -3.86153 -14.4376 12.4047
head 0.742008 -7.27246 4.73223
rclavicle -4.65156e-014 4.37326e-014
rhumerus -50.0465 32.481 -105.628
rradius 31.8164
rwrist -39.9802
rhand -40.5051 -0.692317
rfingers 7.12502
rthumb -13.4546 -30.2378
lclavicle -4.65156e-014 4.37326e-014
lhumerus 31.0079 -33.007 82.5415
lradius 90.8181
lwrist -12.4365
lhand -51.0285 -20.8558
lfingers 7.12502
lthumb -23.5759 7.71903
rfemur -23.8744 -3.32569 18.4008
rtibia 87.9985
rfoot 19.5471 -3.09171
rtoes -19.2552
lfemur 12.6293 -5.50283 -17.3697
ltibia 30.2411
lfoot -11.5762 -8.22949
ltoes -2.47995
29
root 1.06266 17.1226 0.392882 153.939 -22.792 -174.115
lowerback 19.6572 -4.69526 5.18722
upperback 13.143 -8.22012 2.56939
thorax 3.20925 -5.12664 1.12369
lowerneck -1.86658 -10.7169 -9.05151
upperneck -4.18316 -14.1996 12.9574
head 0.668329 -7.17213 4.96483
rclavicle -5.9039e-014 7.39479e-014
rhumerus -50.6899 32.8304 -106.39
rradius 32.4023
rwrist -39.7761
rhand -40.1097 -0.0354754
rfingers 7.12502
rthumb -13.0735 -29.6057
lclavicle -5.9039e-014 7.39479e-014
lhumerus 33.0538 -32.4988 81.4534
lradius 92.1806
lwrist -13.2311
lhand -51.462 -20.7342
lfingers 7.12502
lthumb -23.9917 7.78658
rfemur -26.1865 -2.1097 18.7423
rtibia 90.8679
rfoot 19.1763 -2.66127
rtoes -18.5868
lfemur 13.0922 -5.44252 -17.4662
ltibia 30.4455
lfoot -11.5877 -8.0054
ltoes -2.24752
